<svg width="640" height="640" viewBox="0 0 640 640" fill="none" xmlns="http://www.w3.org/2000/svg">
  <path d="M320 92c46 0 84 38 84 84 0 32-18 60-44 74l20 36c17 30 26 65 26 99v112H234V385c0-34 9-69 26-99l20-36c-26-14-44-42-44-74 0-46 38-84 84-84Z" fill="#A78BFA"/>
  <path d="M320 136c12 0 22 10 22 22 0 11-8 20-18 22l34 61h-76l34-61c-10-2-18-11-18-22 0-12 10-22 22-22Z" fill="#7C3AED"/>
  <rect x="188" y="500" width="264" height="58" rx="6" fill="#6D28D9"/>
  <rect x="146" y="558" width="348" height="34" rx="6" fill="#4C1D95"/>
</svg>
